:SAMPLES-PER-SECOND 30
:FRAME-RANGE 1-564
:FULLY-SPECIFIED
:DEGREES
230
root  23.5856 38.6395 24.5431 165.335 -27.3753 177.956
RightUpLeg  -4.39989 -1.728 -5.23956
RightLeg  -10.1554 12.2294 -6.78449
RightFoot  -7.74409 -0.420071 11.6562
RightToes  -1.74624e-010 0 -3.6325e-017
Spine  9.02654 4.50279 8.45525
Spine1  -1.6659 7.14545 -11.2522
HEad  9.49394 27.0617 -0.438218
LeftShoulder1  3.06287 -4.44021 -32.5495
LeftArm  -3.82163 -8.07886 -30.2758
LeftForeArm  -30.8724 -51.051 -15.8955
LeftHand  -0.581224 -1.20383 10.383
RightShoulder  14.6888 19.9044 54.7391
RightArm  1.24693 18.1279 -1.40222
RightForeArm  -27.9441 34.3195 9.07787
RightHand  4.40311 19.002 20.0771
LeftUpLeg  26.2716 3.50266 -7.39255
LeftLeg  10.0172 -15.9078 0.791212
LeftFoot  -19.0679 1.10717 14.604
LeftToes  -6.43926e-010 8.38805e-011 -3.16407e-011
231
root  23.2719 38.3477 22.9592 165.763 -29.3241 177.796
RightUpLeg  -4.95457 -1.50103 -5.10981
RightLeg  -10.8701 12.5288 -7.08627
RightFoot  -9.87696 -0.23729 13.2379
RightToes  -1.74624e-010 0 -3.6325e-017
Spine  8.48294 5.08448 9.1187
Spine1  -1.6895 7.94947 -12.318
HEad  9.53334 25.7509 -0.560595
LeftShoulder1  3.09307 -4.62677 -32.0373
LeftArm  -3.87031 -9.59977 -30.5168
LeftForeArm  -31.51 -50.3973 -15.5662
LeftHand  -0.59969 -0.828485 11.3229
RightShoulder  15.1297 20.6914 54.5459
RightArm  1.82508 19.2615 -1.29543
RightForeArm  -29.5629 32.4808 8.61352
RightHand  4.52244 18.8819 20.7268
LeftUpLeg  28.46 3.53753 -6.23387
LeftLeg  10.419 -18.0344 0.770487
LeftFoot  -20.7961 1.30917 14.2328
LeftToes  -6.43926e-010 8.38805e-011 -3.16407e-011
232
root  22.955 38.1365 21.4028 165.498 -31.4079 178.22
RightUpLeg  -5.15948 -1.48197 -4.70795
RightLeg  -7.20327 12.2771 -6.15062
RightFoot  -7.33922 -0.414841 10.413
RightToes  -1.74624e-010 0 -3.6325e-017
Spine  8.51506 5.28316 10.5123
Spine1  -1.32226 8.38082 -12.6085
HEad  8.72419 25.0802 -1.55681
LeftShoulder1  3.08161 -4.54946 -32.26
LeftArm  -3.95851 -11.0195 -29.8122
LeftForeArm  -31.6696 -49.9477 -15.3332
LeftHand  -0.708067 -0.282759 14.5728
RightShoulder  15.8523 22.0231 54.1644
RightArm  2.40443 20.0412 -1.13236
RightForeArm  -31.0767 30.8845 8.23166
RightHand  4.65559 18.9972 21.2343
LeftUpLeg  31.0655 2.31943 -5.17847
LeftLeg  10.4633 -19.0273 1.132
LeftFoot  -21.8754 1.3209 12.8376
LeftToes  -6.43926e-010 8.38805e-011 -3.16407e-011
233
root  22.6373 38.0693 19.8556 165.109 -34.9893 179.214
RightUpLeg  -3.93217 0.0541609 -3.75377
RightLeg  -5.53183 8.22035 -7.31729
RightFoot  0.191127 -1.32221 13.0543
RightToes  -1.74624e-010 0 -3.6325e-017
Spine  8.63087 5.00131 11.9318
Spine1  -1.38112 8.35526 -12.1498
HEad  8.46582 23.862 -2.20185
LeftShoulder1  3.09007 -4.62899 -31.9899
LeftArm  -3.75348 -11.9784 -29.584
LeftForeArm  -29.5597 -49.3293 -14.9131
LeftHand  -1.01267 0.468503 23.7763
RightShoulder  16.047 22.4206 53.9887
RightArm  3.30828 20.5693 -0.894193
RightForeArm  -32.4126 29.9907 8.04185
RightHand  4.70293 19.0266 21.4238
LeftUpLeg  32.9569 -2.05211 -4.86008
LeftLeg  11.0835 -18.2509 0.750591
LeftFoot  -21.9477 1.14002 10.8206
LeftToes  -6.43926e-010 8.38805e-011 -3.16407e-011
234
root  22.3319 38.0131 18.3411 164.403 -38.7594 -179.163
RightUpLeg  -4.11039 0.537164 -2.87459
RightLeg  -1.61266 6.29771 -7.00324
RightFoot  6.84072 -2.8604 18.0366
RightToes  -1.74624e-010 0 -3.6325e-017
Spine  9.18125 4.4804 13.9872
Spine1  -2.04309 8.29957 -12.5378
HEad  8.57401 22.6257 -3.22505
LeftShoulder1  3.11568 -4.60564 -32.4155
LeftArm  -3.51037 -12.9813 -29.2745
LeftForeArm  -26.6113 -48.5617 -14.3833
LeftHand  -1.24657 0.730213 30.6417
RightShoulder  16.1963 22.6093 54.0897
RightArm  4.07777 20.9816 -0.929219
RightForeArm  -33.4717 29.0755 7.83992
RightHand  4.75957 19.1043 21.6114
LeftUpLeg  32.6831 -11.7537 -6.51316
LeftLeg  16.1935 -11.6166 -2.9161
LeftFoot  -21.8997 0.839094 7.64143
LeftToes  -6.43926e-010 8.38805e-011 -3.16407e-011
235
root  22.0989 38.0089 16.9736 163.262 -41.0232 -176.964
RightUpLeg  -5.75881 -0.305533 -1.84434
RightLeg  5.06995 5.25594 -4.4666
RightFoot  7.49424 -2.74201 16.7365
RightToes  -1.74624e-010 0 -3.6325e-017
Spine  10.9434 4.13305 16.9625
Spine1  -3.3822 8.64062 -13.6007
HEad  7.85333 21.7248 -4.7079
LeftShoulder1  3.12534 -4.61327 -32.4983
LeftArm  -4.13469 -13.0466 -29.8026
LeftForeArm  -25.8122 -48.0958 -14.1161
LeftHand  -1.42929 -0.0818493 29.9501
RightShoulder  16.3312 23.1359 53.4742
RightArm  4.39203 21.637 -0.12727
RightForeArm  -33.7104 27.54 7.45733
RightHand  4.72343 19.0666 21.4812
LeftUpLeg  28.4874 -10.9701 -0.992111
LeftLeg  26.0581 -13.5842 -6.8117
LeftFoot  -19.6558 0.308102 2.61439
LeftToes  -6.43926e-010 8.38805e-011 -3.16407e-011
